<svg width="15" height="12" viewBox="0 0 15 12" fill="none" xmlns="http://www.w3.org/2000/svg">
<g id="Group">
<path id="Vector" d="M5.73598 1.5133C5.76083 1.50236 5.78803 1.49784 5.81508 1.50016C5.84213 1.50248 5.86817 1.51156 5.8908 1.52657C5.91342 1.54158 5.93191 1.56204 5.94457 1.58606C5.95723 1.61008 5.96364 1.6369 5.96323 1.66405V2.96117C5.96323 3.11036 6.02249 3.25343 6.12798 3.35892C6.23347 3.46441 6.37654 3.52367 6.52573 3.52367C7.2761 3.52367 8.79035 3.5293 10.2382 4.44842C11.3452 5.15042 12.477 6.42842 13.1576 8.80892C12.0101 7.70305 10.6995 7.10342 9.55198 6.78505C8.84665 6.59024 8.12179 6.47477 7.39085 6.4408C7.09166 6.42766 6.79197 6.43066 6.4931 6.4498H6.47848L6.47285 6.45092H6.47173L6.52573 7.01117L6.46948 6.45092C6.33063 6.46488 6.20193 6.52994 6.10837 6.63348C6.01482 6.73701 5.96308 6.87163 5.96323 7.01117V8.3083C5.96323 8.4298 5.83948 8.5063 5.73598 8.45905L1.25398 5.15942C1.23876 5.14814 1.22299 5.13763 1.20673 5.12792C1.18226 5.11322 1.16202 5.09244 1.14797 5.0676C1.13392 5.04276 1.12653 5.01471 1.12653 4.98617C1.12653 4.95763 1.13392 4.92958 1.14797 4.90474C1.16202 4.8799 1.18226 4.85912 1.20673 4.84442C1.223 4.83473 1.23877 4.82421 1.25398 4.81292L5.73598 1.5133ZM7.08823 7.55792C7.16473 7.55792 7.2491 7.5613 7.3391 7.56467C7.82735 7.58717 8.50235 7.66142 9.2516 7.86955C10.7434 8.28355 12.5096 9.2218 13.6841 11.3345C13.7476 11.4486 13.8488 11.537 13.9704 11.5846C14.0919 11.6322 14.2262 11.6361 14.3503 11.5955C14.4744 11.555 14.5805 11.4725 14.6504 11.3623C14.7204 11.2521 14.7498 11.121 14.7337 10.9914C14.2117 6.81767 12.612 4.62167 10.8412 3.49892C9.4406 2.61017 7.99835 2.43917 7.08823 2.40655V1.66405C7.08833 1.43237 7.0259 1.20497 6.90752 1.00583C6.78913 0.806682 6.61919 0.643186 6.41562 0.532588C6.21206 0.42199 5.98241 0.368392 5.75091 0.377449C5.51942 0.386506 5.29466 0.457883 5.10035 0.584047L0.607101 3.89155C0.421341 4.0075 0.268145 4.16882 0.161936 4.36032C0.0557275 4.55182 0 4.76719 0 4.98617C0 5.20515 0.0557275 5.42053 0.161936 5.61203C0.268145 5.80352 0.421341 5.96484 0.607101 6.0808L5.10035 9.3883C5.29466 9.51446 5.51942 9.58584 5.75091 9.5949C5.98241 9.60395 6.21206 9.55035 6.41562 9.43976C6.61919 9.32916 6.78913 9.16566 6.90752 8.96652C7.0259 8.76738 7.08833 8.53997 7.08823 8.3083V7.55792Z" fill="#F51A1A"/>
</g>
</svg>
